<mxfile host="65bd71144e">
    <diagram id="0SykXdJaP0DAyXoWsp4h" name="Page-1">
        <mxGraphModel dx="1127" dy="779" grid="1" gridSize="10" guides="1" tooltips="1" connect="1" arrows="1" fold="1" page="1" pageScale="1" pageWidth="1169" pageHeight="827" math="0" shadow="0">
            <root>
                <mxCell id="0"/>
                <mxCell id="1" parent="0"/>
                <mxCell id="16" value="" style="edgeStyle=none;html=1;exitX=1;exitY=0.5;exitDx=0;exitDy=0;" parent="1" source="31" target="15" edge="1">
                    <mxGeometry relative="1" as="geometry"/>
                </mxCell>
                <mxCell id="32" value="" style="edgeStyle=orthogonalEdgeStyle;html=1;entryX=0;entryY=0.5;entryDx=0;entryDy=0;exitX=1;exitY=0.5;exitDx=0;exitDy=0;" parent="1" source="14" target="31" edge="1">
                    <mxGeometry relative="1" as="geometry"/>
                </mxCell>
                <mxCell id="14" value="用户创建服务" style="rounded=1;whiteSpace=wrap;html=1;" parent="1" vertex="1">
                    <mxGeometry x="20" y="480" width="120" height="60" as="geometry"/>
                </mxCell>
                <mxCell id="18" value="" style="edgeStyle=none;html=1;" parent="1" source="15" target="17" edge="1">
                    <mxGeometry relative="1" as="geometry"/>
                </mxCell>
                <mxCell id="15" value="监控服务使用资源状态" style="whiteSpace=wrap;html=1;rounded=1;" parent="1" vertex="1">
                    <mxGeometry x="340" y="480" width="120" height="60" as="geometry"/>
                </mxCell>
                <mxCell id="20" value="" style="edgeStyle=none;html=1;entryX=0;entryY=0.5;entryDx=0;entryDy=0;" parent="1" source="17" target="19" edge="1">
                    <mxGeometry relative="1" as="geometry">
                        <mxPoint x="1027" y="510" as="targetPoint"/>
                    </mxGeometry>
                </mxCell>
                <mxCell id="17" value="记录数据并持久化" style="whiteSpace=wrap;html=1;rounded=1;" parent="1" vertex="1">
                    <mxGeometry x="510" y="480" width="120" height="60" as="geometry"/>
                </mxCell>
                <mxCell id="22" value="Y" style="edgeStyle=none;html=1;" parent="1" source="19" target="21" edge="1">
                    <mxGeometry relative="1" as="geometry"/>
                </mxCell>
                <mxCell id="28" value="N" style="edgeStyle=orthogonalEdgeStyle;html=1;exitX=0.5;exitY=0;exitDx=0;exitDy=0;entryX=0.5;entryY=0;entryDx=0;entryDy=0;" parent="1" source="35" target="15" edge="1">
                    <mxGeometry relative="1" as="geometry">
                        <mxPoint x="470" y="480" as="targetPoint"/>
                        <Array as="points">
                            <mxPoint x="880" y="400"/>
                            <mxPoint x="400" y="400"/>
                        </Array>
                    </mxGeometry>
                </mxCell>
                <mxCell id="24" value="" style="edgeStyle=none;html=1;" parent="1" source="21" target="23" edge="1">
                    <mxGeometry relative="1" as="geometry"/>
                </mxCell>
                <mxCell id="21" value="创建新的服务，使用更新后的GPU资源" style="whiteSpace=wrap;html=1;rounded=1;" parent="1" vertex="1">
                    <mxGeometry x="687" y="590" width="120" height="60" as="geometry"/>
                </mxCell>
                <mxCell id="26" value="" style="edgeStyle=orthogonalEdgeStyle;html=1;entryX=0.5;entryY=1;entryDx=0;entryDy=0;" parent="1" source="23" target="15" edge="1">
                    <mxGeometry relative="1" as="geometry">
                        <mxPoint x="677" y="670" as="targetPoint"/>
                    </mxGeometry>
                </mxCell>
                <mxCell id="23" value="停止原先服务" style="whiteSpace=wrap;html=1;rounded=1;" parent="1" vertex="1">
                    <mxGeometry x="510" y="590" width="120" height="60" as="geometry"/>
                </mxCell>
                <mxCell id="31" value="查看历史数据，确定GPU资源" style="whiteSpace=wrap;html=1;rounded=1;" parent="1" vertex="1">
                    <mxGeometry x="180" y="480" width="120" height="60" as="geometry"/>
                </mxCell>
                <mxCell id="37" value="Y" style="edgeStyle=orthogonalEdgeStyle;html=1;startArrow=none;exitX=1;exitY=0.5;exitDx=0;exitDy=0;" parent="1" source="35" target="36" edge="1">
                    <mxGeometry relative="1" as="geometry">
                        <mxPoint x="920" y="600" as="sourcePoint"/>
                    </mxGeometry>
                </mxCell>
                <mxCell id="35" value="主动模式？" style="rhombus;whiteSpace=wrap;html=1;rounded=1;" parent="1" vertex="1">
                    <mxGeometry x="840" y="470" width="80" height="80" as="geometry"/>
                </mxCell>
                <mxCell id="39" value="Y" style="edgeStyle=orthogonalEdgeStyle;html=1;" parent="1" source="36" target="38" edge="1">
                    <mxGeometry relative="1" as="geometry"/>
                </mxCell>
                <mxCell id="36" value="到达调整点？" style="rhombus;whiteSpace=wrap;html=1;rounded=1;" parent="1" vertex="1">
                    <mxGeometry x="957" y="470" width="80" height="80" as="geometry"/>
                </mxCell>
                <mxCell id="42" value="" style="edgeStyle=orthogonalEdgeStyle;html=1;" edge="1" parent="1" source="38" target="41">
                    <mxGeometry relative="1" as="geometry"/>
                </mxCell>
                <mxCell id="41" value="与当前资源是否一致？" style="rhombus;whiteSpace=wrap;html=1;rounded=1;" vertex="1" parent="1">
                    <mxGeometry x="840" y="580" width="80" height="80" as="geometry"/>
                </mxCell>
                <mxCell id="43" value="N" style="endArrow=classic;html=1;entryX=1;entryY=0.5;entryDx=0;entryDy=0;edgeStyle=orthogonalEdgeStyle;startArrow=none;" edge="1" parent="1" source="41" target="21">
                    <mxGeometry width="50" height="50" relative="1" as="geometry">
                        <mxPoint x="790" y="228" as="sourcePoint"/>
                        <mxPoint x="840" y="178" as="targetPoint"/>
                        <Array as="points"/>
                    </mxGeometry>
                </mxCell>
                <mxCell id="19" value="是否超过阈值？" style="rhombus;whiteSpace=wrap;html=1;rounded=1;" parent="1" vertex="1">
                    <mxGeometry x="707" y="470" width="80" height="80" as="geometry"/>
                </mxCell>
                <mxCell id="46" value="N" style="endArrow=classic;html=1;exitX=1;exitY=0.5;exitDx=0;exitDy=0;" edge="1" parent="1" source="19" target="35">
                    <mxGeometry width="50" height="50" relative="1" as="geometry">
                        <mxPoint x="900" y="610" as="sourcePoint"/>
                        <mxPoint x="950" y="560" as="targetPoint"/>
                    </mxGeometry>
                </mxCell>
                <mxCell id="38" value="根据机器学习预测应该使用的GPU资源" style="whiteSpace=wrap;html=1;rounded=1;" parent="1" vertex="1">
                    <mxGeometry x="937" y="590" width="120" height="60" as="geometry"/>
                </mxCell>
                <mxCell id="48" value="N" style="endArrow=classic;html=1;edgeStyle=orthogonalEdgeStyle;exitX=0.5;exitY=0;exitDx=0;exitDy=0;entryX=0.5;entryY=0;entryDx=0;entryDy=0;" edge="1" parent="1" source="36" target="15">
                    <mxGeometry width="50" height="50" relative="1" as="geometry">
                        <mxPoint x="1000" y="420" as="sourcePoint"/>
                        <mxPoint x="1050" y="370" as="targetPoint"/>
                        <Array as="points">
                            <mxPoint x="997" y="400"/>
                            <mxPoint x="400" y="400"/>
                        </Array>
                    </mxGeometry>
                </mxCell>
                <mxCell id="49" value="Y" style="endArrow=classic;html=1;exitX=0.5;exitY=1;exitDx=0;exitDy=0;edgeStyle=orthogonalEdgeStyle;entryX=0.5;entryY=1;entryDx=0;entryDy=0;" edge="1" parent="1" source="41" target="15">
                    <mxGeometry width="50" height="50" relative="1" as="geometry">
                        <mxPoint x="930" y="710" as="sourcePoint"/>
                        <mxPoint x="980" y="660" as="targetPoint"/>
                        <Array as="points">
                            <mxPoint x="880" y="730"/>
                            <mxPoint x="400" y="730"/>
                        </Array>
                    </mxGeometry>
                </mxCell>
            </root>
        </mxGraphModel>
    </diagram>
</mxfile>